<svg width="107" height="107" viewBox="0 0 107 107" fill="none" xmlns="http://www.w3.org/2000/svg">
<path d="M105.559 40.0635C103.346 35.9312 97.6367 34.736 91.1268 37.5211C90.3881 37.8496 89.6703 38.2232 88.9775 38.6399L88.7106 38.2324C90.9897 36.1474 92.5554 33.3985 93.1861 30.3746C94.6868 23.8125 92.0166 17.6587 87.1971 16.5526C82.8864 15.5865 78.2967 19.0958 76.3379 24.5632C70.1077 12.0635 60.3546 1.44625 48.5035 0.174657C27.3703 -2.07595 6.54173 17.8749 3.08303 34.0359C1.46822 41.6662 2.37088 43.9924 1.72224 46.7518L7.48295 48.0877C11.9585 36.2487 24.9413 23.1903 38.3051 27.5895C51.1359 31.7989 53.6662 52.8943 53.4878 54.9416L59.5789 57.701C60.9518 51.8896 63.1646 47.7066 65.8605 46.1931C67.441 45.3214 69.2032 44.8307 71.0068 44.7599C72.8103 44.6892 74.6055 45.0404 76.2495 45.7856C81.7932 49.2443 82.6074 51.1011 83.3188 54.3564C84.3364 59.0361 83.5736 62.0752 81.4878 68.6993C80.2162 72.6153 77.927 74.5998 77.165 75.9606C71.786 82.4456 59.3627 89.5278 50.144 82.9415C51.9622 79.4443 55.7135 65.2534 56.502 60.167L47.6644 67.25C42.4124 92.3893 28.2472 90.4055 16.778 85.4333C4.46878 80.0672 4.78706 64.8595 11.2214 58.1583L8.11875 49.3714C1.48107 58.5401 -1.71076 73.3668 2.40868 83.03C0.53985 89.2103 5.60051 100.578 15.43 104.342C27.4459 108.958 35.9532 104.723 40.3652 99.6998C49.3425 103.489 59.0707 105.164 68.7983 104.596C81.9202 103.49 87.9599 95.0466 93.199 84.1489C97.7259 74.7646 97.0138 62.8501 94.1651 53.9618C95.8792 53.7069 97.5514 53.2238 99.1374 52.5254C105.648 49.6896 107.784 44.1837 105.559 40.0635ZM85.3026 24.8951C84.7783 24.7488 84.2301 24.7078 83.6899 24.7745C83.1497 24.8413 82.628 25.0144 82.1551 25.2839C81.6821 25.5534 81.2673 25.914 80.9345 26.3447C80.6017 26.7755 80.3576 27.2679 80.2162 27.7936L78.8047 27.4761C78.8811 27.1329 78.9832 26.7896 79.0973 26.4585C80.1784 22.4918 83.3188 19.8586 86.3073 20.533C89.2957 21.2073 91.1139 25.1869 90.1221 29.4341H90.0586C90.0586 29.6382 89.9951 29.8288 89.9315 30.045L88.5329 29.7267C88.6384 29.1973 88.6385 28.6523 88.5332 28.1229C88.4279 27.5935 88.2192 27.09 87.9192 26.6413C87.6192 26.1926 87.2337 25.8074 86.7847 25.5078C86.3357 25.2081 85.8321 24.9999 85.3026 24.8951Z" fill="#49CC76"/>
<path d="M16.2314 81.58C20.2846 83.9037 24.9723 84.8767 29.6155 84.3579C34.2586 83.839 38.616 81.8554 42.0564 78.6943C48.694 72.3364 39.653 62.5069 28.8702 66.6906V66.7798C22.6521 57.1408 11.145 67.123 11.145 67.123C8.02955 71.2432 6.5546 76.3281 16.2314 81.58Z" fill="#8C63EE"/>
</svg>
